<svg xmlns="http://www.w3.org/2000/svg" xmlns:xlink="http://www.w3.org/1999/xlink" viewBox="0 0 521.55 119.51"><defs><style>.cls-1{fill:#f5564f;}.cls-2{isolation:isolate;}.cls-3{clip-path:url(#clip-path);}.cls-4,.cls-7{fill:#253559;}.cls-5{fill:#f7c800;}.cls-6{fill:#09338b;}.cls-7{opacity:0.23;mix-blend-mode:multiply;}.cls-10,.cls-8,.cls-9{fill:#fff;}.cls-8{opacity:0.1;}.cls-10{opacity:0.38;}.cls-11,.cls-12,.cls-16{fill:none;stroke-miterlimit:10;}.cls-11{stroke:#a6b9e1;}.cls-11,.cls-12{stroke-width:0.4px;}.cls-12,.cls-16{stroke:#253559;}.cls-13{fill:#00488d;}.cls-14{fill:#275998;}.cls-15{fill:#a6b9e1;}.cls-16{stroke-width:2px;}</style><clipPath id="clip-path"><circle class="cls-1" cx="53.81" cy="60.97" r="45.95" transform="translate(-16.53 101.79) rotate(-78.7)"/></clipPath></defs><title>logH</title><g class="cls-2"><g id="Layer_2" data-name="Layer 2"><g id="Layer_1-2" data-name="Layer 1"><circle id="SVGID" class="cls-1" cx="53.81" cy="60.97" r="48.63" transform="translate(-21.02 92.81) rotate(-71.62)"/><circle class="cls-1" cx="53.81" cy="60.97" r="45.95" transform="translate(-16.53 101.79) rotate(-78.7)"/><g class="cls-3"><polygon class="cls-4" points="77.88 87.57 66.18 106.73 40.53 107.76 0 88.45 2.54 47.55 77.88 87.57"/></g><polygon class="cls-4" points="13.85 56.26 87.49 104.81 89.56 63.68 73.33 58.62 72.12 50.97 42.88 41.45 42.14 46.36 52.17 50.2 13.85 56.26"/><polygon class="cls-5" points="86.73 55.72 86.85 63.68 72.31 59.53 71.44 49.91 86.73 55.72"/><path class="cls-6" d="M42.88,41.45,91,57.12S89.56,38,86.25,32.21a32.24,32.24,0,0,0-11.54-11.8S41.44.91,21.71,38c0,0-3.59,8.8-4.09,16.29L56.75,68.19l-2.87-19L42.34,44.89Z"/><path class="cls-7" d="M27.22,40.38c6.5-11.82,17.33-22.14,31.11-24.19q1.52-.23,3-.33C49.9,13.92,33.42,16,21.71,38c0,0-3.59,8.8-4.09,16.29l3.55,1.25A67.44,67.44,0,0,1,27.22,40.38Z"/><path class="cls-8" d="M74.71,20.41a41.27,41.27,0,0,0-9-3.59A30.71,30.71,0,0,1,71.06,20,40.55,40.55,0,0,1,82.7,32.59a33.52,33.52,0,0,1,4.46,16.6,59.33,59.33,0,0,1-.43,6.53l1.67.54S93.61,31.34,74.71,20.41Z"/><polygon class="cls-7" points="42.88 41.45 86.73 55.72 86.79 58.88 42.55 43.67 42.88 41.45"/><polygon class="cls-9" points="72.76 55.23 73.33 58.62 86.46 62.41 74.14 57.37 72.76 55.23"/><path class="cls-7" d="M51.39,15.87,74.7,42.37l6.47-3.2,8,13.6L81.51,34.7l-7,2.14-18.9-21.4S51.36,15.08,51.39,15.87Z"/><polygon class="cls-5" points="45.31 0.13 54.44 13.4 50.03 12.22 74.83 38.77 81.17 35.66 89.17 52.77 91.04 57.18 89.56 25.7 76.58 30.68 45.31 0.13 45.31 0.13"/><polygon class="cls-10" points="45.31 0.13 60.09 16.7 57.36 16.34 75.3 33.75 88.13 30.36 90.6 52.38 91.04 57.18 89.56 25.7 76.58 30.68 45.31 0.13 45.31 0.13"/><polygon class="cls-8" points="44.52 46.82 53.21 50.16 55.7 66.17 51.47 51.05 44.52 46.82"/><polyline class="cls-11" points="59.11 54.91 60.91 65.24 83.5 73.73 81.83 90 73.8 85.27"/><polyline class="cls-12" points="45.31 0.13 60.09 16.7 57.36 16.34 75.3 33.75 88.13 30.36 91.04 57.18 42.88 41.45"/><polygon class="cls-13" points="44.66 102.52 4.9 57.83 9.84 47.01 71.86 81.48 60.76 119.51 44.66 102.52"/><polygon class="cls-14" points="9.21 52.29 62.98 89.77 60.76 119.51 71.86 81.48 9.84 47.01 9.21 52.29"/><path class="cls-15" d="M59.34,115.24,9,59.5l3.21-8.85.2.12L69.31,82.86ZM9.41,59.41l49.75,55,9.68-31.4L12.38,51.23Z"/><rect class="cls-15" x="8.8" y="57.39" width="10.07" height="0.4" transform="translate(-44.5 47.31) rotate(-66.5)"/><rect class="cls-15" x="16.1" y="65.11" width="14.3" height="0.4" transform="translate(-46.03 63.07) rotate(-68.55)"/><rect class="cls-15" x="23.41" y="72.82" width="18.53" height="0.4" transform="translate(-47.15 78.27) rotate(-69.66)"/><rect class="cls-15" x="30.71" y="80.53" width="22.76" height="0.4" transform="translate(-48.1 93.16) rotate(-70.31)"/><rect class="cls-15" x="38.01" y="88.25" width="27" height="0.4" transform="translate(-48.96 107.97) rotate(-70.78)"/><rect class="cls-15" x="45.31" y="95.96" width="31.24" height="0.4" transform="matrix(0.32, -0.95, 0.95, 0.32, -49.75, 122.77)"/><path class="cls-6" d="M319.66,79.07V51.75h-8.08V40.17h20.74V67.48h21.07V79.07Z"/><path class="cls-6" d="M356.66,79.07V51.75h-8.08V40.17H390V51.75H369.32v2.54H378v7.54h-8.67v5.65h24V79.07Z"/><path class="cls-6" d="M446.49,79.07V51.75h-8.08V40.17h41.43V51.75H459.15v2.54h8.68v7.54h-8.68v5.65h24V79.07Z"/><path class="cls-6" d="M487.82,79.07V51.75h-8.08V40.17h20.74V67.48h21.07V79.07Z"/><path class="cls-6" d="M415.36,67.48h24V79.07H406.74l-13-38.9h14.71Zm9.54-27.31h14l-7.62,23.27H418.89Z"/><path class="cls-6" d="M130.19,79.07V55.79H154a4.67,4.67,0,0,0,1.72-.35,1.59,1.59,0,0,0,1-1.61,1.82,1.82,0,0,0-1.09-1.66,5.06,5.06,0,0,0-1.6-.42H122.11V40.17h34.61c4.26,0,7.49.77,9.71,2.21s3.56,3.84,4,7.22a8.31,8.31,0,0,1-1.64,6.09,13.64,13.64,0,0,1-6.23,3.63v.11a12.75,12.75,0,0,1,3.94,1.14,11.65,11.65,0,0,1,3,2.08,8.7,8.7,0,0,1,1.9,2.71,7.18,7.18,0,0,1,.67,3q0,4.61-2.36,7a11.35,11.35,0,0,1-6.06,3.09,45,45,0,0,1-9,.68ZM143.6,64V71.2h8.65a6.69,6.69,0,0,0,3.91-1,3,3,0,0,0,1.67-2.58A2.7,2.7,0,0,0,156.47,65a7.8,7.8,0,0,0-4.22-1Z"/><path class="cls-6" d="M255.87,51.75H243.65q-6.93-.21-2.05,3.83,8.73,7.65,8.57,14.87t-8.57,8.62H197.47l5.06-11.59H229.1q7.62.22,1.94-4.25-9.37-8.62-8-15.84t8.83-7.22h24Z"/><path class="cls-6" d="M291.08,51.75H278.85q-6.92-.21-2,3.83,8.73,7.65,8.56,14.87t-8.56,8.62H242.87V67.48h21.44q7.62.22,1.94-4.25-9.37-8.62-8-15.84t8.84-7.22h24Z"/><path class="cls-6" d="M196,40.17c-12.23,0-22.14,8.76-22.14,19.57S183.77,79.31,196,79.31s22.13-8.76,22.13-19.57S208.22,40.17,196,40.17Zm0,28c-5.22,0-9.45-3.79-9.45-8.47s4.23-8.47,9.45-8.47,9.45,3.79,9.45,8.47S201.22,68.21,196,68.21Z"/><path class="cls-16" d="M38.76,45.67c.36-.62-1-3.44-3.13-3.44s-3.86,1.19-3.86,2.66,1.73,2.66,3.86,2.66A3.2,3.2,0,0,0,38.76,45.67Z"/><path class="cls-5" d="M32.21,45.61,21.92,6.67l7,15.45,9.64,23.06A4.39,4.39,0,0,1,36.72,47,3.52,3.52,0,0,1,32.21,45.61Z"/><polygon class="cls-10" points="38.61 45.18 21.92 6.67 27.5 22.46 36.72 47.01 38.61 45.18"/><line class="cls-12" x1="21.92" y1="6.67" x2="36.72" y2="47.01"/><path class="cls-1" d="M238.32,98.18h3.58c0,1.24.52,1.34,1.56,1.34h4.39c.76,0,1.53-.08,1.53-1s-.42-1.08-5-1.08c-5.39,0-6-.64-6-3.52,0-2.12.2-3.75,4.72-3.75h5c4.14,0,4.52,1.41,4.52,3.46V94H249c0-.86-.1-1.21-1.75-1.21h-4c-.81,0-1.36.27-1.36.9,0,1,.44,1,4.28,1,5.57,0,6.87.32,6.87,3.73,0,3.15-1.07,3.67-5.83,3.67h-4.35c-3.26,0-4.57-.62-4.57-3.15Z"/><path class="cls-1" d="M262.08,90.31h12.79V93h-9.2V94.9h8.72v2.42h-8.72V99.2h9.41V102h-13Z"/><path class="cls-1" d="M283.79,94.41c0-3.42,1.92-4.23,5.15-4.23h4.22c5.11,0,5.77,1.1,5.74,4.41h-3.59v-.32c0-.84-.61-1.08-1.68-1.08h-3.91c-1.89,0-2.24.89-2.24,2.34v1.26c0,1.7.35,2.34,2,2.34h3.82c1.62,0,2.11-.16,2.11-1.61H299v1.09c0,2-.71,3.53-4.31,3.53h-5.79c-3.23,0-5.15-.81-5.15-4.24Z"/><path class="cls-1" d="M308,90.31h3.58v6.75c0,1.49.54,2.07,2,2.07h3.55c1.47,0,2-.58,2-2.07V90.31h3.59v7.53c0,2.91-1.5,4.3-4.8,4.3H312.8c-3.29,0-4.79-1.39-4.79-4.3Z"/><path class="cls-1" d="M332,90.31h10.83c2.76,0,3.5,1.37,3.5,3.47v.75c0,1.57-.35,2.48-2,2.87v0c1.07.19,1.95.66,1.95,2.58v2h-3.58V100.6c0-1.23-.36-1.63-1.47-1.63h-5.64v3H332Zm3.59,5.75h5.93c1,0,1.32-.39,1.32-1.23v-.38c0-1-.51-1.23-1.65-1.23h-5.6Z"/><path class="cls-1" d="M355.71,90.31h3.59V102h-3.59Z"/><path class="cls-1" d="M367.86,90.31h13.66v2.91h-5V102H372.9V93.22h-5Z"/><path class="cls-1" d="M395.27,97.94l-6.48-7.63h4.33l3.94,4.78L401,90.31h4.33l-6.47,7.63V102h-3.59Z"/></g></g></g></svg>