<svg xmlns="http://www.w3.org/2000/svg" xmlns:xlink="http://www.w3.org/1999/xlink" viewBox="0 0 140.94 212.09"><defs><style>.cls-1{fill:#f5564f;}.cls-2{isolation:isolate;}.cls-10,.cls-3,.cls-9{fill:#fff;}.cls-4{clip-path:url(#clip-path);}.cls-5,.cls-8{fill:#253559;}.cls-6{fill:#f7c800;}.cls-7{fill:#09338b;}.cls-8{opacity:0.23;mix-blend-mode:multiply;}.cls-9{opacity:0.1;}.cls-10{opacity:0.38;}.cls-11,.cls-12,.cls-16{fill:none;stroke-miterlimit:10;}.cls-11{stroke:#a6b9e1;}.cls-11,.cls-12{stroke-width:0.4px;}.cls-12,.cls-16{stroke:#253559;}.cls-13{fill:#00488d;}.cls-14{fill:#275998;}.cls-15{fill:#a6b9e1;}.cls-16{stroke-width:2px;}</style><clipPath id="clip-path"><circle class="cls-1" cx="64.49" cy="60.97" r="45.95" transform="translate(-7.94 112.26) rotate(-78.7)"/></clipPath></defs><title>logVert</title><g class="cls-2"><g id="Layer_2" data-name="Layer 2"><g id="Layer_1-2" data-name="Layer 1"><circle id="SVGID" class="cls-1" cx="64.49" cy="60.97" r="48.63" transform="translate(-13.71 102.95) rotate(-71.62)"/><path class="cls-3" d="M5.42,193.55V175.21H0v-7.77H13.92v18.33H28.06v7.78Z"/><path class="cls-3" d="M30.26,193.55V175.21H24.83v-7.77H52.65v7.77H38.76v1.7h5.82V182H38.76v3.8H54.85v7.78Z"/><path class="cls-3" d="M90.56,193.55V175.21H85.14v-7.77H113v7.77H99.06v1.7h5.83V182H99.06v3.8h16.1v7.78Z"/><path class="cls-3" d="M118.3,193.55V175.21h-5.42v-7.77H126.8v18.33h14.14v7.78Z"/><path class="cls-3" d="M69.67,185.77H85.8v7.78H63.88l-8.73-26.11H65Zm6.4-18.33h9.37l-5.12,15.62H72Z"/><path class="cls-1" d="M5.46,208.9H8.34c0,1,.42,1.08,1.25,1.08h3.54c.61,0,1.23-.07,1.23-.79s-.34-.87-4.06-.87c-4.34,0-4.83-.52-4.83-2.84,0-1.7.15-3,3.79-3h4c3.33,0,3.65,1.13,3.65,2.78v.3H14.05c0-.69-.08-1-1.41-1H9.45c-.65,0-1.1.22-1.1.73,0,.82.36.85,3.45.83,4.48,0,5.52.26,5.52,3,0,2.53-.85,3-4.69,3H9.13c-2.62,0-3.67-.5-3.67-2.54Z"/><path class="cls-1" d="M24.58,202.57H34.87v2.18H27.46v1.51h7v2h-7v1.51H35V212H24.58Z"/><path class="cls-1" d="M42.05,205.87c0-2.75,1.55-3.4,4.15-3.4h3.39c4.11,0,4.64.88,4.62,3.55H51.32v-.27c0-.67-.5-.87-1.35-.87H46.82c-1.52,0-1.81.72-1.81,1.89v1c0,1.37.29,1.89,1.65,1.89h3.09c1.3,0,1.69-.13,1.69-1.3h2.88v.88c0,1.59-.57,2.84-3.47,2.84H46.2c-2.6,0-4.15-.65-4.15-3.41Z"/><path class="cls-1" d="M61.54,202.57h2.88V208c0,1.2.43,1.67,1.61,1.67h2.86c1.19,0,1.62-.47,1.62-1.67v-5.43h2.88v6.06c0,2.34-1.21,3.46-3.86,3.46H65.4c-2.65,0-3.86-1.12-3.86-3.46Z"/><path class="cls-1" d="M80.82,202.57h8.71c2.22,0,2.82,1.1,2.82,2.8V206c0,1.26-.29,2-1.61,2.32v0c.85.16,1.57.54,1.57,2.08V212H89.42v-1.13c0-1-.28-1.31-1.18-1.31H83.7V212H80.82Zm2.88,4.63h4.77c.78,0,1.07-.31,1.07-1v-.31c0-.83-.42-1-1.33-1H83.7Z"/><path class="cls-1" d="M99.92,202.57h2.89V212H99.92Z"/><path class="cls-1" d="M109.7,202.57h11v2.34h-4.06V212h-2.88v-7.07H109.7Z"/><path class="cls-1" d="M131.76,208.71l-5.21-6.14H130l3.17,3.85,3.18-3.85h3.48l-5.21,6.14V212h-2.89Z"/><circle class="cls-1" cx="64.49" cy="60.97" r="45.95" transform="translate(-7.94 112.26) rotate(-78.7)"/><g class="cls-4"><polygon class="cls-5" points="83.3 81.76 45.97 142.9 14.74 164.07 0.99 154.07 7.96 41.74 83.3 81.76"/></g><polygon class="cls-5" points="24.53 56.26 98.17 104.81 100.23 63.68 84 58.62 82.8 50.97 53.56 41.45 52.81 46.36 62.85 50.2 24.53 56.26"/><polygon class="cls-6" points="97.41 55.72 97.53 63.68 82.98 59.53 82.12 49.91 97.41 55.72"/><path class="cls-7" d="M53.56,41.45l48.16,15.67S100.23,38,96.93,32.21a32.24,32.24,0,0,0-11.54-11.8S52.12.91,32.39,38c0,0-3.59,8.8-4.09,16.29L67.43,68.19l-2.87-19L53,44.89Z"/><path class="cls-8" d="M37.9,40.38C44.39,28.56,55.23,18.24,69,16.19c1-.15,2-.26,3-.33C60.58,13.92,44.1,16,32.39,38c0,0-3.59,8.8-4.09,16.29l3.55,1.25A67.44,67.44,0,0,1,37.9,40.38Z"/><path class="cls-9" d="M85.39,20.41a41.27,41.27,0,0,0-9-3.59A31.08,31.08,0,0,1,81.74,20,40.55,40.55,0,0,1,93.38,32.59a33.62,33.62,0,0,1,4.46,16.6,59.33,59.33,0,0,1-.43,6.53l1.66.54S104.29,31.34,85.39,20.41Z"/><polygon class="cls-8" points="53.56 41.45 97.41 55.72 97.47 58.88 53.22 43.67 53.56 41.45"/><polygon class="cls-3" points="83.44 55.23 84 58.62 97.14 62.41 84.81 57.37 83.44 55.23"/><path class="cls-8" d="M62.06,15.87l23.32,26.5,6.46-3.2,8,13.6L92.19,34.7l-7,2.14-18.9-21.4S62,15.08,62.06,15.87Z"/><polygon class="cls-6" points="55.98 0.13 65.11 13.4 60.71 12.22 85.51 38.77 91.85 35.66 99.85 52.77 101.72 57.18 100.23 25.7 87.25 30.68 55.98 0.13 55.98 0.13"/><polygon class="cls-10" points="55.98 0.13 70.77 16.7 68.04 16.34 85.98 33.75 98.81 30.36 101.28 52.38 101.72 57.18 100.23 25.7 87.25 30.68 55.98 0.13 55.98 0.13"/><polygon class="cls-9" points="55.2 46.82 63.89 50.16 66.38 66.17 62.15 51.05 55.2 46.82"/><polyline class="cls-11" points="69.79 54.91 71.59 65.24 94.18 73.73 92.5 90 84.48 85.27"/><polyline class="cls-12" points="55.98 0.13 70.77 16.7 68.04 16.34 85.98 33.75 98.81 30.36 101.72 57.18 53.56 41.45"/><polygon class="cls-13" points="55.33 102.52 15.57 57.83 20.52 47.01 82.53 81.48 71.44 119.51 55.33 102.52"/><polygon class="cls-14" points="19.89 52.29 73.65 89.77 71.44 119.51 82.53 81.48 20.52 47.01 19.89 52.29"/><path class="cls-15" d="M70,115.24,19.63,59.5l3.21-8.85.21.12L80,82.86ZM20.09,59.41l49.75,55,9.68-31.4L23.06,51.23Z"/><rect class="cls-15" x="19.47" y="57.39" width="10.07" height="0.4" transform="translate(-38.08 57.1) rotate(-66.5)"/><rect class="cls-15" x="26.78" y="65.11" width="14.3" height="0.4" transform="translate(-39.26 73.01) rotate(-68.55)"/><rect class="cls-15" x="34.09" y="72.82" width="18.53" height="0.4" transform="translate(-40.18 88.29) rotate(-69.66)"/><rect class="cls-15" x="41.39" y="80.53" width="22.76" height="0.4" transform="translate(-41.02 103.21) rotate(-70.31)"/><rect class="cls-15" x="48.69" y="88.25" width="27" height="0.4" transform="translate(-41.8 118.06) rotate(-70.78)"/><rect class="cls-15" x="55.99" y="95.96" width="31.24" height="0.4" transform="matrix(0.32, -0.95, 0.95, 0.32, -42.53, 132.87)"/><path class="cls-3" d="M19.18,161.6V146h16a3.36,3.36,0,0,0,1.15-.23,1.08,1.08,0,0,0,.65-1.09,1.22,1.22,0,0,0-.73-1.11,3.14,3.14,0,0,0-1.07-.28H13.76v-7.78H37A12.25,12.25,0,0,1,43.51,137a6.47,6.47,0,0,1,2.71,4.84,5.55,5.55,0,0,1-1.11,4.09,9.11,9.11,0,0,1-4.17,2.44v.07a8.5,8.5,0,0,1,2.64.77,7.89,7.89,0,0,1,2,1.39,6.14,6.14,0,0,1,1.28,1.82,4.9,4.9,0,0,1,.45,2,6.35,6.35,0,0,1-1.59,4.68,7.61,7.61,0,0,1-4.06,2.08,29.52,29.52,0,0,1-6,.45Zm9-10.1v4.82H34a4.46,4.46,0,0,0,2.62-.65,2,2,0,0,0,1.12-1.73,1.78,1.78,0,0,0-.91-1.79A5.18,5.18,0,0,0,34,151.5Z"/><path class="cls-3" d="M103.55,143.27H95.34q-4.64-.15-1.37,2.57,5.86,5.13,5.75,10T94,161.6H64.35l3.39-7.77H85.58q5.11.15,1.3-2.86-6.28-5.79-5.35-10.63c.63-3.23,2.6-4.85,5.93-4.85h16.09Z"/><path class="cls-3" d="M127.19,143.27H119q-4.65-.15-1.38,2.57,5.87,5.13,5.75,10t-5.75,5.78H94.82v-7.77h14.39q5.12.15,1.31-2.86-6.3-5.79-5.36-10.63t5.93-4.85h16.1Z"/><path class="cls-3" d="M63.36,135.49c-8.21,0-14.86,5.89-14.86,13.14s6.65,13.14,14.86,13.14,14.86-5.88,14.86-13.14S71.57,135.49,63.36,135.49Zm0,18.83c-3.5,0-6.34-2.55-6.34-5.69s2.84-5.69,6.34-5.69,6.34,2.55,6.34,5.69S66.86,154.32,63.36,154.32Z"/><path class="cls-16" d="M49.44,45.67c.36-.62-1-3.44-3.13-3.44s-3.86,1.19-3.86,2.66,1.73,2.66,3.86,2.66A3.2,3.2,0,0,0,49.44,45.67Z"/><path class="cls-6" d="M42.89,45.61,32.59,6.67l7.06,15.45,9.64,23.06A4.39,4.39,0,0,1,47.4,47,3.52,3.52,0,0,1,42.89,45.61Z"/><polygon class="cls-10" points="49.29 45.18 32.59 6.67 38.18 22.46 47.4 47.01 49.29 45.18"/><line class="cls-12" x1="32.59" y1="6.67" x2="47.4" y2="47.01"/></g></g></g></svg>